<svg width="40" height="40" viewBox="0 0 40 40" fill="none" xmlns="http://www.w3.org/2000/svg">
<rect width="40" height="40" rx="4" fill="#D92323"/>
<path fill-rule="evenodd" clip-rule="evenodd" d="M19.1592 8C18.5674 8 18.0878 8.47969 18.0878 9.07143V22.5916C17.2628 22.0079 16.2555 21.6649 15.1681 21.6649C12.3733 21.6649 10.1077 23.9305 10.1077 26.7253C10.1077 29.5201 12.3733 31.7857 15.1681 31.7857C17.938 31.7857 20.1881 29.5604 20.228 26.8001C20.2298 26.7754 20.2306 26.7503 20.2306 26.7253V10.2008C21.058 10.2907 21.8687 10.4844 22.6393 10.777C23.7402 11.195 24.7348 11.8055 25.5683 12.5697C26.4018 13.3337 27.0575 14.2355 27.5027 15.2211C27.9479 16.2064 28.1756 17.2586 28.1756 18.3187C28.1756 18.9104 28.6554 19.3901 29.247 19.3901C29.8388 19.3901 30.3185 18.9104 30.3185 18.3187C30.3185 16.95 30.0243 15.5973 29.4555 14.3387C28.887 13.0804 28.0565 11.9435 27.0164 10.9901C25.9765 10.0368 24.7469 9.28511 23.4 8.77368C22.0531 8.26227 20.6123 8 19.1592 8Z" fill="white"/>
</svg>
