<svg preserveAspectRatio="none" width="100%" height="100%" overflow="visible" style="display: block;" viewBox="0 0 20 20" fill="none" xmlns="http://www.w3.org/2000/svg">
<g id="Video-Player-Album Streamline Ultimate">
<path id="Vector" d="M1.875 1.875H13.75C13.75 1.875 15 1.875 15 3.125V16.875C15 16.875 15 18.125 13.75 18.125H1.875C1.875 18.125 0.625 18.125 0.625 16.875V3.125C0.625 3.125 0.625 1.875 1.875 1.875Z" stroke="var(--stroke-0, #D92323)" stroke-width="1.25" stroke-linecap="round" stroke-linejoin="round"/>
<path id="Vector_2" d="M15 3.59334C16.2892 4.09706 17.3964 4.97799 18.177 6.12099C18.9576 7.264 19.3751 8.61592 19.3751 10C19.3751 11.3841 18.9576 12.736 18.177 13.879C17.3964 15.022 16.2892 15.903 15 16.4067" stroke="var(--stroke-0, #D92323)" stroke-width="1.25" stroke-linecap="round" stroke-linejoin="round"/>
<path id="Vector_3" d="M5.71917 13.05C5.61042 13.1042 5.48961 13.1297 5.36821 13.1242C5.24681 13.1187 5.12884 13.0822 5.0255 13.0182C4.92216 12.9542 4.83687 12.865 4.77771 12.7588C4.71856 12.6527 4.68751 12.5332 4.6875 12.4117V7.5883C4.68751 7.46677 4.71856 7.34726 4.77771 7.24111C4.83687 7.13496 4.92216 7.04566 5.0255 6.98172C5.12884 6.91778 5.24681 6.88131 5.36821 6.87575C5.48961 6.87019 5.61042 6.89573 5.71917 6.94996L10.5433 9.3625C10.6618 9.42158 10.7614 9.51258 10.8311 9.62516C10.9007 9.73775 10.9377 9.86758 10.9377 10C10.9377 10.1323 10.9007 10.2622 10.8311 10.3747C10.7614 10.4873 10.6618 10.5783 10.5433 10.6375L5.71917 13.05Z" stroke="var(--stroke-0, #D92323)" stroke-width="1.25" stroke-linecap="round" stroke-linejoin="round"/>
</g>
</svg>
