<svg preserveAspectRatio="none" width="100%" height="100%" overflow="visible" style="display: block;" viewBox="0 0 21.333 21.3333" fill="none" xmlns="http://www.w3.org/2000/svg">
<g id="Group 64">
<path id="Vector" d="M16.7899 8.72284C16.7898 10.2338 16.3647 11.7143 15.5632 12.9952C14.7618 14.2761 13.6162 15.3058 12.2574 15.9666C10.8987 16.6275 9.38135 16.8928 7.87894 16.7325C6.37651 16.5721 4.94946 15.9924 3.76079 15.0596" stroke="var(--stroke-0, #D92323)" stroke-width="1.33331" stroke-linecap="round" stroke-linejoin="round"/>
<path id="Vector_2" d="M0.711133 9.44995C0.6898 9.21297 0.679134 8.97058 0.679134 8.72286C0.678893 7.13813 1.14611 5.58853 2.02232 4.26804C2.89852 2.94757 4.14477 1.91488 5.60504 1.29926C7.06532 0.683652 8.67475 0.512464 10.2318 0.807129C11.789 1.10179 13.2246 1.84922 14.3589 2.95585" stroke="var(--stroke-0, #D92323)" stroke-width="1.33331" stroke-linecap="round" stroke-linejoin="round"/>
<path id="Vector_3" d="M14.4309 14.4188L20.6663 20.6667" stroke="var(--stroke-0, #D92323)" stroke-width="1.33331" stroke-linecap="round" stroke-linejoin="round"/>
<path id="Vector_4" d="M20.6663 5.6189V1.33364H16.3935" stroke="var(--stroke-0, #D92323)" stroke-width="1.33331" stroke-linecap="round" stroke-linejoin="round"/>
<path id="Vector_5" d="M0.666656 14.6667L8.06209 7.27398C8.22006 7.11641 8.43406 7.02792 8.65719 7.02792C8.88031 7.02792 9.09434 7.11641 9.25229 7.27398L11.4265 9.44906C11.5046 9.52728 11.5973 9.58932 11.6994 9.63172C11.8016 9.67403 11.911 9.6959 12.0216 9.6959C12.1322 9.6959 12.2416 9.67403 12.3437 9.63172C12.4458 9.58932 12.5385 9.52728 12.6167 9.44906L20.6663 1.33364" stroke="var(--stroke-0, #D92323)" stroke-width="1.33331" stroke-linecap="round" stroke-linejoin="round"/>
</g>
</svg>
