<svg preserveAspectRatio="none" width="100%" height="100%" overflow="visible" style="display: block;" viewBox="0 0 36.0001 20" fill="none" xmlns="http://www.w3.org/2000/svg">
<path id="Vector" d="M15.8764 17.8143L14.5566 14.2269C14.5566 14.2269 12.412 16.6187 9.19604 16.6187C6.35034 16.6187 4.32993 14.1445 4.32993 10.1856C4.32993 5.11351 6.88637 3.2991 9.4022 3.2991C13.0309 3.2991 14.1854 5.64954 15.1753 8.66001L16.495 12.7838C17.8143 16.7835 20.2886 20 27.4226 20C32.5364 20 36.0001 18.4332 36.0001 14.3095C36.0001 10.9694 34.1029 9.23727 30.5564 8.41245L27.9174 7.8352C26.1031 7.42287 25.5671 6.68052 25.5671 5.44337C25.5671 4.0413 26.6802 3.21648 28.4949 3.21648C30.4743 3.21648 31.5463 3.95883 31.7114 5.732L35.835 5.23705C35.5051 1.52577 32.9486 0 28.7423 0C25.0312 0 21.4022 1.40207 21.4022 5.89693C21.4022 8.70108 22.7631 10.4744 26.1854 11.2991L28.9899 11.9586C31.0929 12.4536 31.7937 13.3195 31.7937 14.5156C31.7937 16.041 30.3093 16.6597 27.5052 16.6597C23.3402 16.6597 21.6086 14.4742 20.6187 11.4637L19.2578 7.34024C17.5262 1.97934 14.763 0 9.27835 0C3.21664 0 0 3.83497 0 10.3504C0 16.6186 3.21664 19.9998 8.99003 19.9998C13.6492 19.9998 15.8764 17.8143 15.8764 17.8143Z" fill="var(--fill-0, #D92323)"/>
</svg>
