<svg preserveAspectRatio="none" width="100%" height="100%" overflow="visible" style="display: block;" viewBox="0 0 20 21.3333" fill="none" xmlns="http://www.w3.org/2000/svg">
<g id="Group 16">
<path id="Vector" d="M4.66657 14.2924C4.66657 14.646 4.80705 14.9851 5.0571 15.2351C5.30714 15.4852 5.64629 15.6257 5.99991 15.6257C6.35352 15.6257 6.69267 15.4852 6.94272 15.2351C7.19276 14.9851 7.33324 14.646 7.33324 14.2924C7.33324 13.9388 7.19276 13.5996 6.94272 13.3495C6.69267 13.0995 6.35352 12.959 5.99991 12.959C5.64629 12.959 5.30714 13.0995 5.0571 13.3495C4.80705 13.5996 4.66657 13.9388 4.66657 14.2924Z" stroke="var(--stroke-0, #D92323)" stroke-width="1.33333" stroke-linecap="round" stroke-linejoin="round"/>
<path id="Vector_2" d="M11.3332 12.9591C11.3332 13.3127 11.4737 13.6518 11.7237 13.9018C11.9738 14.1519 12.313 14.2924 12.6666 14.2924C13.0202 14.2924 13.3594 14.1519 13.6094 13.9018C13.8595 13.6518 13.9999 13.3127 13.9999 12.9591C13.9999 12.6055 13.8595 12.2663 13.6094 12.0162C13.3594 11.7662 13.0202 11.6257 12.6666 11.6257C12.313 11.6257 11.9738 11.7662 11.7237 12.0162C11.4737 12.2663 11.3332 12.6055 11.3332 12.9591Z" stroke="var(--stroke-0, #D92323)" stroke-width="1.33333" stroke-linecap="round" stroke-linejoin="round"/>
<path id="Vector_3" d="M14 12.9591V7.99992C14 7.79729 13.9537 7.59733 13.8649 7.41524C13.776 7.23315 13.6468 7.0737 13.4871 6.94902C13.3273 6.82434 13.1413 6.73771 12.9431 6.6957C12.7449 6.65369 12.5396 6.65741 12.3431 6.70659L8.34308 7.37325C8.05467 7.44539 7.79864 7.61186 7.61568 7.84619C7.43272 8.08052 7.33334 8.36929 7.3333 8.66658V14.2924" stroke="var(--stroke-0, #D92323)" stroke-width="1.33333" stroke-linecap="round" stroke-linejoin="round"/>
<path id="Vector_4" d="M19.3333 19.3333C19.3333 19.6869 19.1929 20.0261 18.9428 20.2762C18.6928 20.5262 18.3536 20.6667 18 20.6667H2C1.64638 20.6667 1.30724 20.5262 1.05719 20.2762C0.807147 20.0261 0.666667 19.6869 0.666667 19.3333V2C0.666667 1.64638 0.807147 1.30724 1.05719 1.05719C1.30724 0.807142 1.64638 0.666667 2 0.666667H15.3333C15.6811 0.666701 16.015 0.802582 16.264 1.04533L18.9307 3.608C19.0581 3.7322 19.1594 3.88067 19.2285 4.04462C19.2977 4.20858 19.3333 4.38472 19.3333 4.56267V19.3333Z" stroke="var(--stroke-0, #D92323)" stroke-width="1.33333" stroke-linecap="round" stroke-linejoin="round"/>
</g>
</svg>
