<svg width="16" height="16" viewBox="0 0 16 16" fill="none" xmlns="http://www.w3.org/2000/svg">
<g clip-path="url(#clip0_16_300)">
<path d="M1.5 4C1.5 4.39783 1.65803 4.77935 1.93934 5.06066C2.22065 5.34197 2.60217 5.5 3 5.5C3.39783 5.5 3.77935 5.34197 4.06066 5.06066C4.34197 4.77935 4.5 4.39783 4.5 4C4.5 3.60217 4.34197 3.22065 4.06066 2.93934C3.77935 2.65803 3.39783 2.5 3 2.5C2.60217 2.5 2.22065 2.65803 1.93934 2.93934C1.65803 3.22065 1.5 3.60217 1.5 4Z" stroke="#D92323" stroke-linecap="round" stroke-linejoin="round"/>
<path d="M3 6.5C2.33696 6.5 1.70107 6.7634 1.23223 7.2322C0.763393 7.70107 0.5 8.33693 0.5 9V10.5H1.5L2 14.5H4" stroke="#D92323" stroke-linecap="round" stroke-linejoin="round"/>
<path d="M11.5 4C11.5 4.39783 11.6581 4.77935 11.9393 5.06066C12.2207 5.34197 12.6022 5.5 13 5.5C13.3978 5.5 13.7793 5.34197 14.0607 5.06066C14.3419 4.77935 14.5 4.39783 14.5 4C14.5 3.60217 14.3419 3.22065 14.0607 2.93934C13.7793 2.65803 13.3978 2.5 13 2.5C12.6022 2.5 12.2207 2.65803 11.9393 2.93934C11.6581 3.22065 11.5 3.60217 11.5 4Z" stroke="#D92323" stroke-linecap="round" stroke-linejoin="round"/>
<path d="M13 6.5C13.6631 6.5 14.2989 6.7634 14.7678 7.2322C15.2366 7.70107 15.5 8.33693 15.5 9V10.5H14.5L14 14.5H12" stroke="#D92323" stroke-linecap="round" stroke-linejoin="round"/>
<path d="M6 2.5C6 3.03043 6.21071 3.53914 6.58579 3.91421C6.96087 4.28929 7.4696 4.5 8 4.5C8.5304 4.5 9.03913 4.28929 9.4142 3.91421C9.78927 3.53914 10 3.03043 10 2.5C10 1.96957 9.78927 1.46086 9.4142 1.08579C9.03913 0.710713 8.5304 0.5 8 0.5C7.4696 0.5 6.96087 0.710713 6.58579 1.08579C6.21071 1.46086 6 1.96957 6 2.5Z" stroke="#D92323" stroke-linecap="round" stroke-linejoin="round"/>
<path d="M11.5 9C11.5 8.07173 11.1313 7.18153 10.4749 6.52513C9.81847 5.86875 8.92827 5.5 8 5.5C7.07173 5.5 6.18151 5.86875 5.52513 6.52513C4.86875 7.18153 4.5 8.07173 4.5 9V10.5H6L6.5 15.5H9.5L10 10.5H11.5V9Z" stroke="#D92323" stroke-linecap="round" stroke-linejoin="round"/>
</g>
<defs>
<clipPath id="clip0_16_300">
<rect width="16" height="16" fill="white"/>
</clipPath>
</defs>
</svg>
