<svg width="15" height="14" viewBox="0 0 15 14" fill="none" xmlns="http://www.w3.org/2000/svg">
<path d="M14.4666 7.00197H4.66724" stroke="#D92323" stroke-width="0.933273" stroke-linecap="round" stroke-linejoin="round"/>
<path d="M7.00042 9.33515L4.66724 7.00197L7.00042 4.6688" stroke="#D92323" stroke-width="0.933273" stroke-linecap="round" stroke-linejoin="round"/>
<path d="M9.80021 9.79936V12.5992C9.81085 12.8354 9.7276 13.0661 9.56851 13.241C9.40948 13.4159 9.18767 13.5207 8.95155 13.5325H1.31552C1.07954 13.5205 0.857858 13.4157 0.698953 13.2408C0.540048 13.0659 0.456831 12.8352 0.467492 12.5992V1.39991C0.456665 1.16382 0.539825 0.933049 0.698766 0.758135C0.857703 0.583215 1.07947 0.478402 1.31552 0.466637H8.95155C9.18767 0.478402 9.40948 0.583196 9.56851 0.758098C9.7276 0.932993 9.81085 1.16375 9.80021 1.39991V4.19973" stroke="#D92323" stroke-width="0.933273" stroke-linecap="round" stroke-linejoin="round"/>
</svg>
