<svg preserveAspectRatio="none" width="100%" height="100%" overflow="visible" style="display: block;" viewBox="0 0 15 20" fill="none" xmlns="http://www.w3.org/2000/svg">
<path id="Vector" d="M14.765 8.26415C14.9217 8.11086 15 7.92318 15 7.7009C15 7.47864 14.9217 7.28722 14.765 7.12626L8.04863 0.229928C7.89934 0.076643 7.71639 0 7.50009 0C7.28363 0 7.09702 0.076643 6.94026 0.229928L0.223926 7.12626C0.0746419 7.2872 0 7.47863 0 7.7009C0 7.92317 0.0746419 8.11085 0.223926 8.26415C0.380672 8.42509 0.567107 8.50548 0.783577 8.50548C1.00004 8.50548 1.18282 8.4251 1.33212 8.26415L6.7162 2.74717V19.1954C6.7162 19.4175 6.79085 19.6054 6.94013 19.7587C7.09688 19.9194 7.28349 20 7.49996 20C7.71625 20 7.89921 19.9194 8.0485 19.7587C8.20507 19.6054 8.28354 19.4175 8.28354 19.1954V2.74717L13.6565 8.26415C13.8133 8.42509 13.9997 8.50548 14.2162 8.50548C14.4326 8.50548 14.6154 8.4251 14.7647 8.26415H14.765Z" fill="var(--fill-0, #222222)"/>
</svg>
