<svg width="40" height="40" viewBox="0 0 40 40" fill="none" xmlns="http://www.w3.org/2000/svg">
<rect x="0.5" y="0.5" width="39" height="39" rx="19.5" fill="#D92323" fill-opacity="0.1" stroke="#D92323"/>
<path fill-rule="evenodd" clip-rule="evenodd" d="M19.7518 12.2121C20.0345 11.9293 20.493 11.9293 20.7758 12.2121L25.3157 16.7517C25.5985 17.0345 25.5985 17.493 25.3157 17.7757C25.033 18.0585 24.5744 18.0585 24.2918 17.7758L20.9878 14.4721V27.4784C20.9878 27.8784 20.6637 28.2025 20.2638 28.2025C19.8639 28.2025 19.5397 27.8784 19.5397 27.4784V14.4722L16.2361 17.7758C15.9533 18.0585 15.4949 18.0585 15.2121 17.7758C14.9293 17.493 14.9293 17.0345 15.2121 16.7518L19.7518 12.2121Z" fill="#D92323"/>
</svg>
