<svg preserveAspectRatio="none" width="100%" height="100%" overflow="visible" style="display: block;" viewBox="0 0 16 16" fill="none" xmlns="http://www.w3.org/2000/svg">
<g id="Playlist-Songs Streamline Ultimate" clip-path="url(#clip0_0_54)">
<path id="Vector" d="M14.0347 13.5C14.8439 13.5 15.5 12.8439 15.5 12.0347C15.5 11.2254 14.8439 10.5693 14.0347 10.5693C13.2254 10.5693 12.5693 11.2254 12.5693 12.0347C12.5693 12.8439 13.2254 13.5 14.0347 13.5Z" stroke="var(--stroke-0, #222222)" stroke-linecap="round" stroke-linejoin="round"/>
<path id="Vector_2" d="M7.03467 15.5C7.84394 15.5 8.5 14.8439 8.5 14.0347C8.5 13.2254 7.84394 12.5693 7.03467 12.5693C6.22539 12.5693 5.56934 13.2254 5.56934 14.0347C5.56934 14.8439 6.22539 15.5 7.03467 15.5Z" stroke="var(--stroke-0, #222222)" stroke-linecap="round" stroke-linejoin="round"/>
<path id="Vector_3" d="M8.5 14.0347V7.6C8.49987 7.3104 8.59093 7.0282 8.76027 6.79327C8.9296 6.55838 9.1686 6.38276 9.44333 6.29132L13.6847 5.13999C13.8919 5.07077 14.1127 5.05183 14.3288 5.08471C14.5449 5.11759 14.75 5.20137 14.9273 5.32912C15.1046 5.45688 15.249 5.62495 15.3486 5.81949C15.4481 6.01403 15.5001 6.22945 15.5 6.44799V12.0347" stroke="var(--stroke-0, #222222)" stroke-linecap="round" stroke-linejoin="round"/>
<path id="Vector_4" d="M3.5 0.5H13.5" stroke="var(--stroke-0, #222222)" stroke-linecap="round" stroke-linejoin="round"/>
<path id="Vector_5" d="M3.5 4.5H7.5" stroke="var(--stroke-0, #222222)" stroke-linecap="round" stroke-linejoin="round"/>
<path id="Vector_6" d="M3.5 8.5H5.5" stroke="var(--stroke-0, #222222)" stroke-linecap="round" stroke-linejoin="round"/>
<path id="Vector_7" d="M0.75 1C0.611929 1 0.5 0.888073 0.5 0.75C0.5 0.611929 0.611929 0.5 0.75 0.5" stroke="var(--stroke-0, #222222)"/>
<path id="Vector_8" d="M0.75 1C0.888073 1 1 0.888073 1 0.75C1 0.611929 0.888073 0.5 0.75 0.5" stroke="var(--stroke-0, #222222)"/>
<path id="Vector_9" d="M0.75 4.5C0.611929 4.5 0.5 4.38807 0.5 4.25C0.5 4.11193 0.611929 4 0.75 4" stroke="var(--stroke-0, #222222)"/>
<path id="Vector_10" d="M0.75 4.5C0.888073 4.5 1 4.38807 1 4.25C1 4.11193 0.888073 4 0.75 4" stroke="var(--stroke-0, #222222)"/>
<path id="Vector_11" d="M0.75 8.5C0.611929 8.5 0.5 8.38807 0.5 8.25C0.5 8.11193 0.611929 8 0.75 8" stroke="var(--stroke-0, #222222)"/>
<path id="Vector_12" d="M0.75 8.5C0.888073 8.5 1 8.38807 1 8.25C1 8.11193 0.888073 8 0.75 8" stroke="var(--stroke-0, #222222)"/>
</g>
<defs>
<clipPath id="clip0_0_54">
<rect width="16" height="16" fill="white"/>
</clipPath>
</defs>
</svg>
