<svg preserveAspectRatio="none" width="100%" height="100%" overflow="visible" style="display: block;" viewBox="0 0 17.5 17.5" fill="none" xmlns="http://www.w3.org/2000/svg">
<g id="Group 40">
<path id="Vector" d="M13.4913 6.875L11.875 5.25875V2.5H13.125V4.74125L14.375 5.99125L13.4913 6.875Z" fill="var(--fill-0, #D92323)"/>
<path id="Vector_2" d="M12.5 10C11.5111 10 10.5444 9.70676 9.72215 9.15735C8.89991 8.60794 8.25904 7.82705 7.8806 6.91342C7.50217 5.99979 7.40315 4.99446 7.59608 4.02455C7.789 3.05465 8.26521 2.16373 8.96447 1.46447C9.66373 0.765206 10.5546 0.289002 11.5246 0.0960758C12.4945 -0.0968503 13.4998 0.00216641 14.4134 0.380605C15.3271 0.759043 16.1079 1.39991 16.6574 2.22215C17.2068 3.0444 17.5 4.0111 17.5 5C17.4985 6.32562 16.9712 7.5965 16.0339 8.53386C15.0965 9.47121 13.8256 9.99848 12.5 10ZM12.5 1.25C11.7583 1.25 11.0333 1.46994 10.4166 1.88199C9.79993 2.29405 9.31928 2.87972 9.03545 3.56494C8.75162 4.25016 8.67736 5.00416 8.82206 5.73159C8.96675 6.45902 9.3239 7.12721 9.84835 7.65165C10.3728 8.1761 11.041 8.53325 11.7684 8.67795C12.4958 8.82264 13.2498 8.74838 13.9351 8.46455C14.6203 8.18072 15.206 7.70008 15.618 7.08339C16.0301 6.46671 16.25 5.74168 16.25 5C16.2489 4.00578 15.8535 3.05258 15.1504 2.34956C14.4474 1.64653 13.4942 1.25109 12.5 1.25Z" fill="var(--fill-0, #D92323)"/>
<path id="Vector_3" d="M4.14375 10L8.51875 13.75H17.5V12.5H8.98125L4.60625 8.75H1.25V5.35934e-09H0V16.25C0.000413467 16.5814 0.132242 16.8991 0.366573 17.1334C0.600904 17.3678 0.918606 17.4996 1.25 17.5H17.5V16.25H1.25V10H4.14375Z" fill="var(--fill-0, #D92323)"/>
</g>
</svg>
