<svg width="18" height="18" viewBox="0 0 18 18" fill="none" xmlns="http://www.w3.org/2000/svg">
<path d="M0.533325 8.53333C0.533325 10.6551 1.37618 12.6899 2.87647 14.1902C4.37676 15.6904 6.41159 16.5333 8.53333 16.5333C10.6551 16.5333 12.6899 15.6904 14.1902 14.1902C15.6904 12.6899 16.5333 10.6551 16.5333 8.53333C16.5333 6.41159 15.6904 4.37676 14.1902 2.87647C12.6899 1.37618 10.6551 0.533325 8.53333 0.533325C6.41159 0.533325 4.37676 1.37618 2.87647 2.87647C1.37618 4.37676 0.533325 6.41159 0.533325 8.53333Z" stroke="#D92323" stroke-width="1.06667" stroke-linecap="round" stroke-linejoin="round"/>
<path d="M2.66669 9.06665H4.80002L6.40713 5.04885C6.44759 4.94869 6.51755 4.86319 6.60771 4.80371C6.69789 4.74423 6.80402 4.71357 6.91202 4.71581C7.02002 4.71805 7.12478 4.75308 7.21239 4.81624C7.30007 4.8794 7.36642 4.96772 7.40269 5.06947L9.74366 11.7006C9.77766 11.7969 9.8386 11.8814 9.91924 11.944C9.99981 12.0067 10.0967 12.0449 10.1984 12.0541C10.3001 12.0633 10.4024 12.0432 10.4929 11.996C10.5835 11.9489 10.6586 11.8767 10.7094 11.7881L12.2667 9.06665H14.4" stroke="#D92323" stroke-width="1.06667" stroke-linecap="round" stroke-linejoin="round"/>
</svg>
