<svg preserveAspectRatio="none" width="100%" height="100%" overflow="visible" style="display: block;" viewBox="0 0 21.3327 19.9798" fill="none" xmlns="http://www.w3.org/2000/svg">
<g id="Group 15">
<path id="Vector" d="M17.491 5.23802C17.3999 5.32356 17.2927 5.3901 17.1755 5.43378C17.0584 5.47746 16.9339 5.4974 16.8089 5.49244C16.6841 5.48748 16.5615 5.45771 16.4482 5.40488C16.3349 5.35204 16.2333 5.2772 16.1493 5.1847L14.7542 3.76302C14.5693 3.58471 14.4605 3.3418 14.4505 3.08511C14.4407 2.82841 14.5303 2.57782 14.7009 2.38575C14.8344 2.20394 15.0205 2.06747 15.234 1.99479L19.4725 0.6975C19.6299 0.654716 19.7962 0.65612 19.9529 0.701578C20.1096 0.747028 20.2508 0.834773 20.361 0.955181C20.4498 1.03237 20.5223 1.12641 20.5744 1.23183C20.6265 1.33726 20.6572 1.45198 20.6645 1.56935C20.672 1.68672 20.6561 1.80439 20.6177 1.91556C20.5793 2.02672 20.5193 2.12916 20.441 2.21693L17.491 5.23802Z" stroke="var(--stroke-0, #D92323)" stroke-width="1.33283" stroke-linecap="round" stroke-linejoin="round"/>
<path id="Vector_2" d="M9.7784 8.67676C9.5002 8.37918 9.29388 8.02185 9.17525 7.63215C9.05663 7.24245 9.02891 6.83076 9.09422 6.42868C9.20147 5.80463 9.4149 5.20356 9.72509 4.65157C9.83278 4.45472 9.87455 4.22852 9.84416 4.0062C9.81377 3.78388 9.71283 3.57718 9.55627 3.41647C9.46412 3.31941 9.35323 3.24212 9.23025 3.18931C9.10728 3.13649 8.97479 3.10925 8.84098 3.10925C8.70715 3.10925 8.57471 3.13649 8.45175 3.18931C8.32878 3.24212 8.21784 3.31941 8.1257 3.41647C7.28686 4.23336 6.71133 5.28232 6.47298 6.42868C6.28638 7.36166 5.58442 8.63233 4.69587 8.64121C4.14996 8.64415 3.61028 8.75753 3.10924 8.97424C2.60821 9.19105 2.15615 9.50684 1.78021 9.9027C1.40426 10.2985 1.1122 10.7664 0.921545 11.2779C0.730884 11.7895 0.645569 12.3342 0.670718 12.8796C0.683609 14.3082 1.25814 15.6742 2.27011 16.6826L3.22975 17.6778C3.70725 18.1858 4.28225 18.5925 4.92039 18.8734C5.55853 19.1542 6.24674 19.3037 6.94391 19.3128C7.48496 19.3223 8.02244 19.2233 8.52462 19.0217C9.02678 18.8201 9.48349 18.52 9.86779 18.139C10.2521 17.758 10.5562 17.3039 10.7621 16.8035C10.968 16.303 11.0716 15.7664 11.0668 15.2254C11.0668 14.2391 12.1331 13.626 13.0483 13.6615C13.5829 13.7049 14.1204 13.6267 14.6206 13.4328C15.1207 13.239 15.5705 12.9344 15.9361 12.542C16.0631 12.4062 16.1495 12.2376 16.1856 12.0554C16.2218 11.8731 16.206 11.6842 16.1404 11.5104C16.0747 11.3366 15.9617 11.1845 15.8141 11.0716C15.6665 10.9587 15.4902 10.8893 15.3052 10.8715C12.4263 10.6316 11.8132 10.7293 11.0402 9.92962L9.7784 8.67676Z" stroke="var(--stroke-0, #D92323)" stroke-width="1.33283" stroke-linecap="round" stroke-linejoin="round"/>
<path id="Vector_3" d="M7.57478 10.6848L9.41409 12.5686" stroke="var(--stroke-0, #D92323)" stroke-width="1.33283" stroke-linecap="round" stroke-linejoin="round"/>
<path id="Vector_4" d="M10.5693 9.46747L15.4474 4.46494" stroke="var(--stroke-0, #D92323)" stroke-width="1.33283" stroke-linecap="round" stroke-linejoin="round"/>
<path id="Vector_5" d="M4.37603 14.4789C4.37603 14.6562 4.41005 14.8319 4.47614 14.9957C4.54222 15.1596 4.63909 15.3085 4.7612 15.4339C4.88332 15.5594 5.02828 15.6588 5.18784 15.7267C5.34739 15.7946 5.51839 15.8295 5.69109 15.8295C5.86378 15.8295 6.0348 15.7946 6.19434 15.7267C6.35389 15.6588 6.49887 15.5594 6.62098 15.4339C6.7431 15.3085 6.83996 15.1596 6.90605 14.9957C6.97214 14.8319 7.00615 14.6562 7.00615 14.4789C7.00615 14.3015 6.97214 14.1259 6.90605 13.9621C6.83996 13.7982 6.7431 13.6493 6.62098 13.5239C6.49887 13.3985 6.35389 13.299 6.19434 13.2311C6.0348 13.1633 5.86378 13.1283 5.69109 13.1283C5.51839 13.1283 5.34739 13.1633 5.18784 13.2311C5.02828 13.299 4.88332 13.3985 4.7612 13.5239C4.63909 13.6493 4.54222 13.7982 4.47614 13.9621C4.41005 14.1259 4.37603 14.3015 4.37603 14.4789Z" stroke="var(--stroke-0, #D92323)" stroke-width="1.33283" stroke-linecap="round" stroke-linejoin="round"/>
</g>
</svg>
