<svg width="16" height="16" viewBox="0 0 16 16" fill="none" xmlns="http://www.w3.org/2000/svg">
<g clip-path="url(#clip0_16_143)">
<path d="M14.0347 13.5C14.8439 13.5 15.5 12.8439 15.5 12.0347C15.5 11.2254 14.8439 10.5693 14.0347 10.5693C13.2254 10.5693 12.5693 11.2254 12.5693 12.0347C12.5693 12.8439 13.2254 13.5 14.0347 13.5Z" stroke="#D92323" stroke-linecap="round" stroke-linejoin="round"/>
<path d="M7.03467 15.5C7.84394 15.5 8.5 14.8439 8.5 14.0347C8.5 13.2254 7.84394 12.5693 7.03467 12.5693C6.22539 12.5693 5.56934 13.2254 5.56934 14.0347C5.56934 14.8439 6.22539 15.5 7.03467 15.5Z" stroke="#D92323" stroke-linecap="round" stroke-linejoin="round"/>
<path d="M8.5 14.0346V7.59996C8.49987 7.31036 8.59093 7.02816 8.76027 6.79322C8.9296 6.55834 9.1686 6.38272 9.44333 6.29128L13.6847 5.13995C13.8919 5.07073 14.1127 5.05178 14.3288 5.08466C14.5449 5.11755 14.75 5.20132 14.9273 5.32908C15.1046 5.45684 15.249 5.62491 15.3486 5.81945C15.4481 6.01398 15.5001 6.22941 15.5 6.44795V12.0346" stroke="#D92323" stroke-linecap="round" stroke-linejoin="round"/>
<path d="M3.5 0.5H13.5" stroke="#D92323" stroke-linecap="round" stroke-linejoin="round"/>
<path d="M3.5 4.5H7.5" stroke="#D92323" stroke-linecap="round" stroke-linejoin="round"/>
<path d="M3.5 8.5H5.5" stroke="#D92323" stroke-linecap="round" stroke-linejoin="round"/>
<path d="M0.75 1C0.611929 1 0.5 0.888073 0.5 0.75C0.5 0.611929 0.611929 0.5 0.75 0.5" stroke="#D92323"/>
<path d="M0.75 1C0.888073 1 1 0.888073 1 0.75C1 0.611929 0.888073 0.5 0.75 0.5" stroke="#D92323"/>
<path d="M0.75 4.5C0.611929 4.5 0.5 4.38807 0.5 4.25C0.5 4.11193 0.611929 4 0.75 4" stroke="#D92323"/>
<path d="M0.75 4.5C0.888073 4.5 1 4.38807 1 4.25C1 4.11193 0.888073 4 0.75 4" stroke="#D92323"/>
<path d="M0.75 8.5C0.611929 8.5 0.5 8.38807 0.5 8.25C0.5 8.11193 0.611929 8 0.75 8" stroke="#D92323"/>
<path d="M0.75 8.5C0.888073 8.5 1 8.38807 1 8.25C1 8.11193 0.888073 8 0.75 8" stroke="#D92323"/>
</g>
<defs>
<clipPath id="clip0_16_143">
<rect width="16" height="16" fill="white"/>
</clipPath>
</defs>
</svg>
