<svg width="18" height="18" viewBox="0 0 18 18" fill="none" xmlns="http://www.w3.org/2000/svg">
<path d="M0.533447 8.53333C0.533447 10.6551 1.3763 12.6899 2.87659 14.1902C4.37688 15.6904 6.41171 16.5333 8.53345 16.5333C10.6552 16.5333 12.69 15.6904 14.1903 14.1902C15.6906 12.6899 16.5334 10.6551 16.5334 8.53333C16.5334 6.41159 15.6906 4.37676 14.1903 2.87647C12.69 1.37618 10.6552 0.533325 8.53345 0.533325C6.41171 0.533325 4.37688 1.37618 2.87659 2.87647C1.3763 4.37676 0.533447 6.41159 0.533447 8.53333Z" stroke="#222222" stroke-opacity="0.75" stroke-width="1.06667" stroke-linecap="round" stroke-linejoin="round"/>
<path d="M2.66675 9.06665H4.80008L6.40719 5.04885C6.44765 4.94869 6.51761 4.86319 6.60778 4.80371C6.69795 4.74423 6.80408 4.71357 6.91208 4.71581C7.02009 4.71805 7.12485 4.75308 7.21245 4.81624C7.30013 4.8794 7.36648 4.96772 7.40275 5.06947L9.74373 11.7006C9.77772 11.7969 9.83866 11.8814 9.9193 11.944C9.99987 12.0067 10.0968 12.0449 10.1985 12.0541C10.3002 12.0633 10.4024 12.0432 10.493 11.996C10.5835 11.9489 10.6586 11.8767 10.7094 11.7881L12.2667 9.06665H14.4001" stroke="#222222" stroke-opacity="0.75" stroke-width="1.06667" stroke-linecap="round" stroke-linejoin="round"/>
</svg>
