<svg preserveAspectRatio="none" width="100%" height="100%" overflow="visible" style="display: block;" viewBox="0 0 14.9333 14.9333" fill="none" xmlns="http://www.w3.org/2000/svg">
<g id="icon_calendar">
<path id="Vector" d="M13.5333 2.33333H1.4C0.884532 2.33333 0.466667 2.7512 0.466667 3.26667V13.5333C0.466667 14.0488 0.884532 14.4667 1.4 14.4667H13.5333C14.0488 14.4667 14.4667 14.0488 14.4667 13.5333V3.26667C14.4667 2.7512 14.0488 2.33333 13.5333 2.33333Z" stroke="var(--stroke-0, #222222)" stroke-width="0.933333" stroke-linecap="round" stroke-linejoin="round"/>
<path id="Vector_2" d="M0.466667 6.06667H14.4667" stroke="var(--stroke-0, #222222)" stroke-width="0.933333" stroke-linecap="round" stroke-linejoin="round"/>
<path id="Vector_3" d="M4.2 3.73333V0.466667" stroke="var(--stroke-0, #222222)" stroke-width="0.933333" stroke-linecap="round" stroke-linejoin="round"/>
<path id="Vector_4" d="M10.7333 3.73333V0.466667" stroke="var(--stroke-0, #222222)" stroke-width="0.933333" stroke-linecap="round" stroke-linejoin="round"/>
<path id="Vector_5" d="M3.5 8.86667C3.37113 8.86667 3.26667 8.7622 3.26667 8.63333C3.26667 8.50447 3.37113 8.4 3.5 8.4" stroke="var(--stroke-0, #222222)" stroke-width="0.933333"/>
<path id="Vector_6" d="M3.5 8.86667C3.62887 8.86667 3.73333 8.7622 3.73333 8.63333C3.73333 8.50447 3.62887 8.4 3.5 8.4" stroke="var(--stroke-0, #222222)" stroke-width="0.933333"/>
<path id="Vector_7" d="M3.5 12.1333C3.37113 12.1333 3.26667 12.0289 3.26667 11.9C3.26667 11.7711 3.37113 11.6667 3.5 11.6667" stroke="var(--stroke-0, #222222)" stroke-width="0.933333"/>
<path id="Vector_8" d="M3.5 12.1333C3.62887 12.1333 3.73333 12.0289 3.73333 11.9C3.73333 11.7711 3.62887 11.6667 3.5 11.6667" stroke="var(--stroke-0, #222222)" stroke-width="0.933333"/>
<path id="Vector_9" d="M7.46667 8.86667C7.3378 8.86667 7.23333 8.7622 7.23333 8.63333C7.23333 8.50447 7.3378 8.4 7.46667 8.4" stroke="var(--stroke-0, #222222)" stroke-width="0.933333"/>
<path id="Vector_10" d="M7.46667 8.86667C7.59553 8.86667 7.7 8.7622 7.7 8.63333C7.7 8.50447 7.59553 8.4 7.46667 8.4" stroke="var(--stroke-0, #222222)" stroke-width="0.933333"/>
<path id="Vector_11" d="M7.46667 12.1333C7.3378 12.1333 7.23333 12.0289 7.23333 11.9C7.23333 11.7711 7.3378 11.6667 7.46667 11.6667" stroke="var(--stroke-0, #222222)" stroke-width="0.933333"/>
<path id="Vector_12" d="M7.46667 12.1333C7.59553 12.1333 7.7 12.0289 7.7 11.9C7.7 11.7711 7.59553 11.6667 7.46667 11.6667" stroke="var(--stroke-0, #222222)" stroke-width="0.933333"/>
<path id="Vector_13" d="M11.4333 8.86667C11.3045 8.86667 11.2 8.7622 11.2 8.63333C11.2 8.50447 11.3045 8.4 11.4333 8.4" stroke="var(--stroke-0, #222222)" stroke-width="0.933333"/>
<path id="Vector_14" d="M11.4333 8.86667C11.5622 8.86667 11.6667 8.7622 11.6667 8.63333C11.6667 8.50447 11.5622 8.4 11.4333 8.4" stroke="var(--stroke-0, #222222)" stroke-width="0.933333"/>
<path id="Vector_15" d="M11.4333 12.1333C11.3045 12.1333 11.2 12.0289 11.2 11.9C11.2 11.7711 11.3045 11.6667 11.4333 11.6667" stroke="var(--stroke-0, #222222)" stroke-width="0.933333"/>
<path id="Vector_16" d="M11.4333 12.1333C11.5622 12.1333 11.6667 12.0289 11.6667 11.9C11.6667 11.7711 11.5622 11.6667 11.4333 11.6667" stroke="var(--stroke-0, #222222)" stroke-width="0.933333"/>
</g>
</svg>
