<svg preserveAspectRatio="none" width="100%" height="100%" overflow="visible" style="display: block;" viewBox="0 0 368 16" fill="none" xmlns="http://www.w3.org/2000/svg">
<path id="Vector" opacity="0.5" fill-rule="evenodd" clip-rule="evenodd" d="M0 0.00597974L2.14667 1.78309C4.29333 3.56021 8.58667 7.11443 12.5733 8.29918C16.8667 9.48392 21.16 8.29918 25.4533 8.89155C29.7467 9.48392 33.7333 11.8534 38.0267 10.9648C42.32 10.0763 46.6133 5.92969 50.9067 4.15258C54.8933 2.37546 59.1867 2.96784 63.48 5.33732C67.7733 7.7068 71.76 11.8534 76.0533 11.261C80.3467 10.6687 84.64 5.33732 88.9333 5.33732C92.92 5.33732 97.2133 10.6687 101.507 13.0381C105.8 15.4076 110.093 14.8153 114.08 13.0381C118.373 11.261 122.667 8.29918 126.96 8.29918C131.253 8.29918 135.24 11.261 139.533 11.261C143.827 11.261 148.12 8.29918 152.413 7.41062C156.4 6.52206 160.693 7.7068 164.987 7.41062C169.28 7.11443 173.573 5.33732 177.56 4.44876C181.853 3.56021 186.147 3.56021 190.44 4.74495C194.427 5.92969 198.72 8.29918 203.013 8.59536C207.307 8.89155 211.6 7.11443 215.587 7.7068C219.88 8.29918 224.173 11.261 228.467 11.8534C232.76 12.4458 236.747 10.6687 241.04 8.59536C245.333 6.52206 249.627 4.15258 253.92 2.37546C257.907 0.598351 262.2 -0.586391 266.493 0.302165C270.787 1.19072 275.08 4.15258 279.067 5.04113C283.36 5.92969 287.653 4.74495 291.947 5.04113C296.24 5.33732 300.227 7.11443 304.52 8.00299C308.813 8.89155 313.107 8.89155 317.093 9.18773C321.387 9.48392 325.68 10.0763 329.973 9.7801C334.267 9.48392 338.253 8.29918 342.547 8.00299C346.84 7.7068 351.133 8.29918 355.427 8.59536C359.413 8.89155 363.707 8.89155 365.853 8.89155H368V16H365.853C363.707 16 359.413 16 355.427 16C351.133 16 346.84 16 342.547 16C338.253 16 334.267 16 329.973 16C325.68 16 321.387 16 317.093 16C313.107 16 308.813 16 304.52 16C300.227 16 296.24 16 291.947 16C287.653 16 283.36 16 279.067 16C275.08 16 270.787 16 266.493 16C262.2 16 257.907 16 253.92 16C249.627 16 245.333 16 241.04 16C236.747 16 232.76 16 228.467 16C224.173 16 219.88 16 215.587 16C211.6 16 207.307 16 203.013 16C198.72 16 194.427 16 190.44 16C186.147 16 181.853 16 177.56 16C173.573 16 169.28 16 164.987 16C160.693 16 156.4 16 152.413 16C148.12 16 143.827 16 139.533 16C135.24 16 131.253 16 126.96 16C122.667 16 118.373 16 114.08 16C110.093 16 105.8 16 101.507 16C97.2133 16 92.92 16 88.9333 16C84.64 16 80.3467 16 76.0533 16C71.76 16 67.7733 16 63.48 16C59.1867 16 54.8933 16 50.9067 16C46.6133 16 42.32 16 38.0267 16C33.7333 16 29.7467 16 25.4533 16C21.16 16 16.8667 16 12.5733 16C8.58667 16 4.29333 16 2.14667 16H0V0.00597974Z" fill="url(#paint0_linear_0_103)"/>
<defs>
<linearGradient id="paint0_linear_0_103" x1="184" y1="16" x2="184" y2="1.67084e-09" gradientUnits="userSpaceOnUse">
<stop stop-color="#D92323" stop-opacity="0.25"/>
<stop offset="0.5" stop-color="#D92323" stop-opacity="0.1"/>
</linearGradient>
</defs>
</svg>
