<svg preserveAspectRatio="none" width="100%" height="100%" overflow="visible" style="display: block;" viewBox="0 0 80 20.2416" fill="none" xmlns="http://www.w3.org/2000/svg">
<g id="last-fm-logo-black 1" clip-path="url(#clip0_0_5)">
<path id="Vector" d="M17.8824 18.6801L16.9395 16.117C16.9395 16.117 15.4073 17.8259 13.1095 17.8259C11.0764 17.8259 9.63284 16.0581 9.63284 13.2296C9.63284 9.60575 11.4593 8.30942 13.2568 8.30942C15.8494 8.30942 16.6743 9.98873 17.3815 12.1396L18.3244 15.0859C19.267 17.9436 21.0348 20.2417 26.1318 20.2417C29.7855 20.2417 32.2602 19.1222 32.2602 16.176C32.2602 13.7896 30.9047 12.5521 28.3708 11.9627L26.4853 11.5503C25.1891 11.2557 24.8061 10.7253 24.8061 9.84143C24.8061 8.83969 25.6014 8.25038 26.898 8.25038C28.3122 8.25038 29.0781 8.78077 29.1961 10.0476L32.1422 9.69402C31.9066 7.04243 30.08 5.95231 27.0747 5.95231C24.4233 5.95231 21.8305 6.95405 21.8305 10.1655C21.8305 12.169 22.8028 13.436 25.2479 14.0251L27.2516 14.4964C28.7542 14.85 29.2549 15.4687 29.2549 16.3232C29.2549 17.4131 28.1943 17.8551 26.1908 17.8551C23.2151 17.8551 21.9779 16.2936 21.2706 14.1428L20.2983 11.1967C19.0612 7.36648 17.0869 5.95231 13.1683 5.95231C8.83743 5.95231 6.53924 8.69228 6.53924 13.3473C6.53924 17.8258 8.83743 20.2416 12.9623 20.2416C16.2912 20.2416 17.8824 18.6801 17.8824 18.6801ZM5.27406 17.2953C4.97946 17.3838 4.68476 17.4427 4.30178 17.4427C3.59464 17.4427 3.09371 17.1187 3.09371 16.2641V0.206217H0V17.0007C0 19.2104 1.53224 20.1241 3.32939 20.1241C3.91869 20.1241 4.47854 20.0355 5.18568 19.8589L5.27406 17.2953ZM42.5427 16.8239C41.7767 17.3545 41.1286 17.6198 40.2446 17.6198C39.125 17.6198 38.5063 17.0305 38.5063 15.5867V8.69183H42.5723V6.27603H38.5357V3.00522L35.4126 3.38831V6.27591H33.4385V8.69171H35.4126V16.2345C35.4126 18.9457 36.9741 20.2415 39.508 20.2415C40.8929 20.2415 42.1303 19.9767 43.1027 19.4169L42.5427 16.8239ZM45.2299 17.8845C45.2299 19.0928 46.1728 20.0649 47.3808 20.0649C48.6479 20.0649 49.5906 19.0928 49.5906 17.8845C49.5906 16.6471 48.6477 15.7046 47.3808 15.7046C46.1728 15.7046 45.2299 16.6471 45.2299 17.8845ZM52.7933 8.69183V19.8882H55.887V8.69183H59.3638V6.27603H55.887V5.03838C55.887 3.18232 56.6827 2.59301 57.979 2.59301C58.8924 2.59301 59.5111 2.799 60.2183 3.18232L60.7191 0.589192C59.8942 0.206217 58.9218 0 57.7433 0C55.1503 0 52.7933 1.23742 52.7933 4.92043V6.27603H50.8193V8.69183H52.7933ZM71.6911 8.9573C71.3375 6.74749 69.8939 5.95163 68.0081 5.95163C66.1225 5.95163 64.5021 6.80619 63.7947 8.89804L63.4118 6.27603H60.9074V19.8882H64.0011V12.1983C64.0011 9.57573 65.3564 8.57399 66.8002 8.57399C68.3027 8.57399 68.9216 9.57573 68.9216 11.1962V19.8881H71.9857V12.1687C71.9857 9.57561 73.3706 8.57388 74.8144 8.57388C76.2876 8.57388 76.9062 9.57562 76.9062 11.1961V19.8879H79.9999V10.1065C79.9999 7.1895 78.291 5.95163 76.0223 5.95163C74.1074 5.95163 72.3983 6.80619 71.6911 8.9573Z" fill="var(--fill-0, #D92323)"/>
</g>
<defs>
<clipPath id="clip0_0_5">
<rect width="80" height="20.2416" fill="white"/>
</clipPath>
</defs>
</svg>
