<svg preserveAspectRatio="none" width="100%" height="100%" overflow="visible" style="display: block;" viewBox="0 0 1440 80" fill="none" xmlns="http://www.w3.org/2000/svg">
<path id="Vector" fill-rule="evenodd" clip-rule="evenodd" d="M0 0.0298987L8.4 8.91547C16.8 17.801 33.6 35.5722 49.2 41.4959C66 47.4196 82.8 41.4959 99.6 44.4577C116.4 47.4196 132 59.267 148.8 54.8242C165.6 50.3814 182.4 29.6485 199.2 20.7629C214.8 11.8773 231.6 14.8392 248.4 26.6866C265.2 38.534 280.8 59.267 297.6 56.3052C314.4 53.3433 331.2 26.6866 348 26.6866C363.6 26.6866 380.4 53.3433 397.2 65.1907C414 77.0381 430.8 74.0763 446.4 65.1907C463.2 56.3052 480 41.4959 496.8 41.4959C513.6 41.4959 529.2 56.3052 546 56.3052C562.8 56.3052 579.6 41.4959 596.4 37.0531C612 32.6103 628.8 38.534 645.6 37.0531C662.4 35.5722 679.2 26.6866 694.8 22.2438C711.6 17.801 728.4 17.801 745.2 23.7247C760.8 29.6485 777.6 41.4959 794.4 42.9768C811.2 44.4577 828 35.5722 843.6 38.534C860.4 41.4959 877.2 56.3052 894 59.267C910.8 62.2289 926.4 53.3433 943.2 42.9768C960 32.6103 976.8 20.7629 993.6 11.8773C1009.2 2.99175 1026 -2.93196 1042.8 1.51083C1059.6 5.95361 1076.4 20.7629 1092 25.2057C1108.8 29.6485 1125.6 23.7247 1142.4 25.2057C1159.2 26.6866 1174.8 35.5722 1191.6 40.015C1208.4 44.4577 1225.2 44.4577 1240.8 45.9387C1257.6 47.4196 1274.4 50.3814 1291.2 48.9005C1308 47.4196 1323.6 41.4959 1340.4 40.015C1357.2 38.534 1374 41.4959 1390.8 42.9768C1406.4 44.4577 1423.2 44.4577 1431.6 44.4577H1440V80H1431.6C1423.2 80 1406.4 80 1390.8 80C1374 80 1357.2 80 1340.4 80C1323.6 80 1308 80 1291.2 80C1274.4 80 1257.6 80 1240.8 80C1225.2 80 1208.4 80 1191.6 80C1174.8 80 1159.2 80 1142.4 80C1125.6 80 1108.8 80 1092 80C1076.4 80 1059.6 80 1042.8 80C1026 80 1009.2 80 993.6 80C976.8 80 960 80 943.2 80C926.4 80 910.8 80 894 80C877.2 80 860.4 80 843.6 80C828 80 811.2 80 794.4 80C777.6 80 760.8 80 745.2 80C728.4 80 711.6 80 694.8 80C679.2 80 662.4 80 645.6 80C628.8 80 612 80 596.4 80C579.6 80 562.8 80 546 80C529.2 80 513.6 80 496.8 80C480 80 463.2 80 446.4 80C430.8 80 414 80 397.2 80C380.4 80 363.6 80 348 80C331.2 80 314.4 80 297.6 80C280.8 80 265.2 80 248.4 80C231.6 80 214.8 80 199.2 80C182.4 80 165.6 80 148.8 80C132 80 116.4 80 99.6 80C82.8 80 66 80 49.2 80C33.6 80 16.8 80 8.4 80H0V0.0298987Z" fill="url(#paint0_linear_0_4)"/>
<defs>
<linearGradient id="paint0_linear_0_4" x1="720" y1="80" x2="720" y2="8.35421e-09" gradientUnits="userSpaceOnUse">
<stop stop-color="#D92323" stop-opacity="0.25"/>
<stop offset="0.5" stop-color="#D92323" stop-opacity="0.1"/>
</linearGradient>
</defs>
</svg>
